<?xml version="1.0" standalone="no"?>
<!DOCTYPE svg PUBLIC "-//W3C//DTD SVG 20010904//EN"
 "http://www.w3.org/TR/2001/REC-SVG-20010904/DTD/svg10.dtd">
<svg version="1.0" xmlns="http://www.w3.org/2000/svg"
 width="100.000000pt" height="100.000000pt" viewBox="0 0 100.000000 100.000000"
 preserveAspectRatio="xMidYMid meet">
<metadata>
Created by potrace 1.11, written by Peter Selinger 2001-2013
</metadata>
<g transform="translate(0.000000,100.000000) scale(0.100000,-0.100000)"
fill="#000000" stroke="none">
<path d="M346 583 c36 -82 84 -192 107 -245 22 -54 44 -98 47 -98 3 0 24 44
47 98 23 53 71 163 107 245 l65 147 -219 0 -219 0 65 -147z m322 108 c-1 -5
-37 -86 -78 -179 l-74 -171 -19 42 c-62 138 -137 309 -137 313 0 2 70 4 156 4
86 0 154 -4 152 -9z"/>
</g>
</svg>
